<svg enable-background="new 0 0 20 20" height="20" viewBox="0 0 20 20" width="20" xmlns="http://www.w3.org/2000/svg"><path d="m0 0h20v20h-20z" fill="none"/><path d="m13.05 10.62h2v5.5h-2z" transform="matrix(.7071 -.7071 .7071 .7071 -5.3383 13.8538)"/><path d="m14.23 8.98c1.38 0 2.5-1.12 2.5-2.5 0-.51-.15-.98-.42-1.38l-2.08 2.08-.71-.71 2.08-2.08c-.4-.26-.87-.42-1.38-.42-1.38 0-2.5 1.12-2.5 2.5 0 .32.07.63.18.91l-1.21 1.22-1.05-1.06.71-.71-1.42-1.41 1.41-1.42c-.78-.78-2.05-.78-2.83 0l-2.82 2.83 1.06 1.06h-2.13l-.35.35 2.83 2.83.35-.35.01-2.12 1.06 1.06.71-.71 1.06 1.06-4.6 4.6 1.41 1.41 7.22-7.22c.28.11.59.18.91.18z"/></svg>